<mxfile host="65bd71144e">
    <diagram id="U3XhPAmpanmcGD7EV16Y" name="Page-1">
        <mxGraphModel dx="834" dy="461" grid="1" gridSize="10" guides="1" tooltips="1" connect="1" arrows="1" fold="1" page="1" pageScale="1" pageWidth="850" pageHeight="1100" math="0" shadow="0">
            <root>
                <mxCell id="0"/>
                <mxCell id="1" parent="0"/>
                <mxCell id="2" value="cliente" style="rounded=0;whiteSpace=wrap;html=1;fontStyle=1" parent="1" vertex="1">
                    <mxGeometry x="98" y="470" width="120" height="60" as="geometry"/>
                </mxCell>
                <mxCell id="18" value="(1, N)" style="edgeStyle=none;html=1;endArrow=none;endFill=0;fontStyle=1" parent="1" source="3" target="2" edge="1">
                    <mxGeometry relative="1" as="geometry"/>
                </mxCell>
                <mxCell id="19" value="(1, 1)" style="edgeStyle=none;html=1;endArrow=none;endFill=0;fontStyle=1" parent="1" source="3" target="4" edge="1">
                    <mxGeometry relative="1" as="geometry"/>
                </mxCell>
                <mxCell id="3" value="effettuare" style="rhombus;whiteSpace=wrap;html=1;fontStyle=1" parent="1" vertex="1">
                    <mxGeometry x="118" y="330" width="80" height="80" as="geometry"/>
                </mxCell>
                <mxCell id="20" value="(1, 1)" style="edgeStyle=none;html=1;endArrow=none;endFill=0;fontStyle=1" parent="1" source="4" target="6" edge="1">
                    <mxGeometry relative="1" as="geometry"/>
                </mxCell>
                <mxCell id="21" value="(0, N)" style="edgeStyle=none;html=1;endArrow=none;endFill=0;fontStyle=1" parent="1" source="4" target="13" edge="1">
                    <mxGeometry relative="1" as="geometry"/>
                </mxCell>
                <mxCell id="4" value="prenotazione&lt;br&gt;[fk: id_s, id_c]" style="rounded=0;whiteSpace=wrap;html=1;fontStyle=1" parent="1" vertex="1">
                    <mxGeometry x="258" y="340" width="120" height="60" as="geometry"/>
                </mxCell>
                <mxCell id="22" value="(0, N)" style="edgeStyle=none;html=1;endArrow=none;endFill=0;fontStyle=1" parent="1" source="6" target="7" edge="1">
                    <mxGeometry relative="1" as="geometry"/>
                </mxCell>
                <mxCell id="6" value="avere" style="rhombus;whiteSpace=wrap;html=1;fontStyle=1" parent="1" vertex="1">
                    <mxGeometry x="473" y="330" width="80" height="80" as="geometry"/>
                </mxCell>
                <mxCell id="7" value="stanza" style="rounded=0;whiteSpace=wrap;html=1;fontStyle=1" parent="1" vertex="1">
                    <mxGeometry x="633" y="340" width="120" height="60" as="geometry"/>
                </mxCell>
                <mxCell id="12" value="ospiti" style="rounded=0;whiteSpace=wrap;html=1;fontStyle=1" parent="1" vertex="1">
                    <mxGeometry x="453" y="470" width="120" height="60" as="geometry"/>
                </mxCell>
                <mxCell id="23" value="(1, N)" style="edgeStyle=none;html=1;endArrow=none;endFill=0;fontStyle=1" parent="1" source="13" target="12" edge="1">
                    <mxGeometry relative="1" as="geometry"/>
                </mxCell>
                <mxCell id="13" value="comprendere" style="rhombus;whiteSpace=wrap;html=1;fontStyle=1" parent="1" vertex="1">
                    <mxGeometry x="278" y="460" width="80" height="80" as="geometry"/>
                </mxCell>
                <mxCell id="26" value="&lt;div&gt;&lt;br&gt;&lt;/div&gt;" style="text;strokeColor=none;fillColor=none;html=1;whiteSpace=wrap;verticalAlign=middle;overflow=hidden;fontStyle=1" parent="1" vertex="1">
                    <mxGeometry x="268" y="240" width="100" height="80" as="geometry"/>
                </mxCell>
            </root>
        </mxGraphModel>
    </diagram>
</mxfile>